<?xml version="1.0" encoding="utf-8"?>
<!-- Generator: Adobe Illustrator 25.2.3, SVG Export Plug-In . SVG Version: 6.00 Build 0)  -->
<svg version="1.1"
	 id="svg2" inkscape:version="0.48.2 r9819" sodipodi:docname="bitcoin-logo-noshadow.svg" xmlns:cc="http://creativecommons.org/ns#" xmlns:dc="http://purl.org/dc/elements/1.1/" xmlns:inkscape="http://www.inkscape.org/namespaces/inkscape" xmlns:rdf="http://www.w3.org/1999/02/22-rdf-syntax-ns#" xmlns:sodipodi="http://sodipodi.sourceforge.net/DTD/sodipodi-0.dtd" xmlns:svg="http://www.w3.org/2000/svg"
	 xmlns="http://www.w3.org/2000/svg" xmlns:xlink="http://www.w3.org/1999/xlink" x="0px" y="0px" viewBox="0 0 1024 1024"
	 style="enable-background:new 0 0 1024 1024;" xml:space="preserve">
<style type="text/css">
	.st0{opacity:0.57;fill:url(#SVGID_1_);}
	.st1{fill:url(#SVGID_2_);}
	.st2{fill:url(#SVGID_3_);}
</style>
<radialGradient id="SVGID_1_" cx="1603.8011" cy="1092.2126" r="885.2537" gradientTransform="matrix(-0.3104 -0.9506 -0.9506 0.3104 1525.6079 2010.2437)" gradientUnits="userSpaceOnUse">
	<stop  offset="0" style="stop-color:#FFFFFF"/>
	<stop  offset="7.597600e-02" style="stop-color:#E5E3E3"/>
	<stop  offset="0.2352" style="stop-color:#B4AEAD"/>
	<stop  offset="0.3909" style="stop-color:#8A8181"/>
	<stop  offset="0.5398" style="stop-color:#6A5F5E"/>
	<stop  offset="0.6799" style="stop-color:#544645"/>
	<stop  offset="0.8079" style="stop-color:#463736"/>
	<stop  offset="0.9125" style="stop-color:#413231"/>
</radialGradient>
<path class="st0" d="M969,472.1c5.1-29.1,4.6-58.8-2-87.7c-6.7-29-19.3-56.2-34.8-81.4c0.9,0.4,1.8,0.9,2.7,1.3
	c-15.6,12.7-30.4,25.2-48.9,33.5c-15.9,7.2-33,13.5-50.7,10.4c-8.9-1.6-16.6-5.2-24.6-9.2c-8.6-4.3-17.3-8.2-26.3-11.5
	c-18.7-6.8-38.6-10.3-57.7-3c-18.3,7-31.9,20.3-42.5,36.3c-11.2,16.9-21.9,34-33.8,50.4c-12.8,17.6-25.8,34.9-38.9,52.2
	c-12.3,16.2-25.6,31.2-42.2,43.1c-34.5,24.6-77,33.9-117.2,44.8c-21.1,5.8-42,12.4-62.9,18.9c-10.1,3.1-20.4,6.9-30.9,8.7
	c-6.3,1.1-15.4,2.7-19.2-4c-6.8-12.1,3.9-30.8,13.1-38.7c6.7-5.8,15.1-7.6,23.4-10.2c10.4-3.3,20.8-6.9,30.9-11.1
	c19.5-8,38.1-18.3,56.4-28.6c18.1-10.1,35.9-21.1,52.1-34.2c7.5-6,12.7-12.8,18.1-20.7c5.4-7.9,10.1-15.8,13.2-24.9
	c6.1-17.4,16.8-32.5,28.8-46.4c25.6-29.6,52.2-61.1,66.5-98.1c3.4-8.8,4.7-17.7,6-26.9c0.9,2.8,1.9,5.7,2.8,8.5
	c-8.8,1.6-15.6,7.3-22.6,12.6c-7.4,5.6-14.8,11.4-22,17.3c-14.4,11.8-28.4,24.1-41.8,37c-13.5,13-26.2,26.9-39.2,40.3
	c-13.1,13.5-25.8,27.2-38.4,41.1c-11.6,12.8-24.7,24-39.1,33.5c-15.5,10.2-32.5,17.2-48.8,25.8c-33.9,18-70.9,27.7-107,39.8
	c-20.5,6.9-40.7,15-59.4,25.7c-8.7,5-17.1,10.5-25.1,16.5c-8.5,6.3-17.5,12.9-24.2,21.2c-0.4-3.5-0.8-7-1.2-10.5
	c2.2,1.5,2.5,1.1,5.2,0.7c1.9-0.3,3.8-0.4,5.7-0.4c4.3,0,8.5,0.7,12.7,1.6c7.1,1.5,14.4,3.2,20.9,6.5c12,6.3,20.9,17.4,25.5,30.1
	c11.2,30.8-2.7,64.3-19.7,89.8c-5.1,7.7-10.1,15.4-14.6,23.5c-3.9,7.1-9.1,15.4-8.9,23.8c0.4,15.3,14.3,30.5,27,37.4
	c15.1,8.2,34.1,10.3,51.1,10.9c17.8,0.6,35.6-1.5,52.9-5.6c18.7-4.5,37.4-9,56.3-13.1c19.3-4.2,38.6-8.1,57.1-15.1
	c35.6-13.5,69.4-30.2,102.7-48.7c33.3-18.5,64.8-39.8,97.1-59.8c15.9-9.9,30.2-22.2,44.6-34.1c14.7-12.1,29.2-24.3,44.2-36
	c14.9-11.7,30.3-22.7,45.8-33.6c15.6-10.9,31.4-20,49.3-26.6c34.9-12.9,72.4-20.5,109.3-24.5c8.5-0.9,17-1.5,25.5-2.1
	c3.7-0.3,4.4,11.2,0.6,11.5c-37.2,2.7-73.7,8.4-109.6,18.5c-18.3,5.2-36.4,11.6-53,21c-16.5,9.4-32,21.3-47.2,32.6
	c-30.5,22.7-59.1,47.9-89,71.4c-14.8,11.6-31.4,20.5-47.1,30.7c-15.9,10.3-31.7,20.9-48,30.5c-32.9,19.4-67,37.8-102.5,52.2
	c-17.4,7-34.8,13.6-53.1,17.9c-19.2,4.5-38.6,8.4-57.8,12.8c-17.8,4.1-35.2,9.2-53.5,10.9c-17.4,1.6-34.9,0.8-52.1-2.6
	c-16.1-3.2-30.8-9.3-41.5-22.2c-9.6-11.5-16.1-26.2-14.1-41.4c1.1-8.3,5-15.7,8.8-23c4.3-8.1,9-15.8,14-23.4
	c9.4-14.1,18-28.2,21.8-45c3.4-15.4,2.9-31.3-6.9-44.3c-9.6-12.7-23.9-17.8-39.1-20.4c-3.7-0.6-7.4-1-11.2-0.8
	c-3.9,0.2-6.5,1.6-9.9-0.7c-2.7-1.8-3.2-8-1.2-10.5c11.1-13.7,27.3-24.6,42.2-33.9c16-10.1,33.3-18,50.9-24.7
	c18-6.8,36.5-12.1,54.8-17.9c18.9-6,37.4-13.3,55.5-21.5c8.7-3.9,17-8.4,25.6-12.5c8.4-4,16.8-7.8,24.9-12.4
	c15.4-8.8,29.8-19.6,42.5-32.1c13.7-13.4,25.9-28.4,39.3-42.1c12.9-13.3,25.4-26.8,38.4-39.9c14.8-14.9,30.4-29,46.6-42.4
	c8.1-6.7,16.4-13.2,24.8-19.6c7.7-5.8,15-11.8,24.7-13.6c3.3-0.6,3,7,2.8,8.5c-1.3,8.9-2.6,17.6-5.6,26.1
	c-3.1,8.8-7.4,17.1-11.8,25.3c-9.1,17-20.1,32.9-32,48.1c-11.6,14.8-24.8,28.4-36,43.5c-5.5,7.5-10.4,15.4-14.1,23.9
	c-3.4,8-6,16.1-10.4,23.6c-4.4,7.5-9.4,15.4-15.1,22c-5.9,6.8-13.5,12.3-20.7,17.5c-16.5,12.1-34.3,22.4-52.3,32.1
	c-18.2,9.8-36.3,19.4-55.7,26.7c-9.3,3.5-18.7,6.6-28.1,9.5c-8.1,2.4-15.4,5.6-20.7,12.4c-2.1,2.8-3.9,5.8-5.2,9
	c-0.7,1.7-1.3,3.4-1.9,5.1c-1.1,2.8,0,1.6-0.6,0.8c0.6,0.8,1.7,1.3,2.6,1.5c3.8,1.2,8.8,0.1,12.7-0.5c4.9-0.8,9.6-2.3,14.4-3.7
	c20.5-6.1,40.8-12.7,61.3-18.8c40.3-11.9,82.7-19.5,119.7-40.5c17.2-9.7,33.2-22.9,45.6-38.3c13.4-16.5,25.8-34,38.4-51.1
	c12-16.2,23.4-32.7,34.5-49.6c10.1-15.4,19.4-30.9,34.6-41.9c14.6-10.5,32-16.2,50.1-14.5c18.6,1.7,36.5,9.5,53.1,17.6
	c8.3,4.1,16.2,8.3,25.4,9.9c8.2,1.5,16.6,1,24.7-0.9c18.5-4.4,37.2-13.7,52.2-25.2c7.3-5.5,14.2-11.6,21.3-17.4
	c1.1-0.9,2.2,0.6,2.7,1.3c16.7,27.3,29.8,56.7,36.8,88c6.9,31.3,7.1,63.5,1.6,95c-0.3,2-1.7,3.8-3.6,2.3
	C968.5,478.4,968.6,474.2,969,472.1z M936.5,600.4c-20-4.5-40.3-4.9-60.7-4.1c-10.8,0.4-21.6,1.2-32.4,2.1
	c-10.4,0.8-20.8,0.6-31.1,2.7c-21.7,4.2-42.6,12.2-63.3,19.6c-21,7.6-41,16.4-60.2,27.7c-19.2,11.4-38.2,23.2-57.2,34.9
	c-18.9,11.7-37.8,24.6-58.2,33.7c-20,9-40.5,17.2-60.7,25.8c-21.4,9.1-42.7,18.3-64.7,25.8c-21.3,7.3-43.1,13.2-65.1,18
	c-42.6,9.3-85.8,17.2-129.5,17.7c-20,0.2-40.7,0.1-59.8-6.7c-15.4-5.5-33.7-16.3-40.6-31.8c-3-6.7-4-14.3-2.1-21.5
	c2.4-9.1,9.6-16.9,14.9-24.4c6.3-8.9,12.7-17.7,19.4-26.3c6-7.7,13-14.9,17.5-23.6c14.6-28.5,9.7-68.9-13.3-91.6
	c-5.7-5.6-12.3-10.2-19.6-13.5c-7.2-3.3-16.4-6.7-24.4-6.2c-10.2,0.7-17.3,10.8-24.2,17.4c-7.7,7.5-15.5,15-22.8,23
	c-12.9,14.2-22,31.1-29.5,48.6c-7.2,17-12.4,34.8-15.3,53c-5.7,35.7-2.5,72.3,7.4,106.9C72,846.5,91.5,883,120.4,911.8
	c25.9,25.9,57,46,91.8,57.9c37.9,12.9,78.6,19.3,118.5,20.1c42.9,0.9,85.8-4.2,127.4-14.6c21.6-5.4,42.8-12.3,64-19.1
	c21.2-6.9,42.1-14.4,62.7-22.9c80.3-33.5,157-78.6,222.5-136.2c30.4-26.7,58.6-56.4,82.2-89.4c11.4-16,21.7-32.8,30.5-50.3
	c4.3-8.6,8.3-17.4,12-26.3c3.4-8.2,7.3-16,7-25C939,604.9,938.5,600.3,936.5,600.4c-2.1,0.1-2,4.6-1.9,5.9c0,0.4-0.5,3.2,0,1.9
	c0.7-1.9-1.4,2.8-1.3,2.6c-0.8,2.1-1.6,4.1-2.4,6.2c-1.7,4.3-3.4,8.5-5.3,12.7c-3.7,8.5-7.8,16.8-12.2,25
	c-37.7,70.7-97.7,127.9-162.2,174.2c-70.9,50.9-150.4,90.1-233.4,116.8c-40.7,13.1-81.4,24.7-124,29.6c-40.7,4.7-82.1,4.2-122.6-2.5
	c-37.5-6.3-74.4-16.9-106.8-37.2c-32.5-20.4-60.4-48.6-79-82.4C67.4,820.2,56.6,782.5,55.3,745c-1.3-36.4,7.6-72.6,24.3-104.8
	c9.4-18.2,22.2-32.7,36.8-46.9c3.9-3.8,7.8-7.6,11.7-11.3c3.5-3.4,7-7.8,11.3-10.1c8.3-4.4,19.8-0.1,27.7,3.3
	c31.1,13.2,47.2,48.9,34.5,80.7c-3.5,8.8-9.7,15.6-15.5,22.9c-6.6,8.3-12.9,16.8-19.1,25.4c-5.7,8-12.5,16-16.9,24.7
	c-3.4,6.6-4.8,14-4.9,21.4c-0.1,14.9,5.2,28.9,16.1,39.1c13.5,12.6,30.1,20.4,48.2,23.8c19.6,3.7,40.1,3.1,59.9,2.2
	c21.3-1,42.6-3.7,63.6-7.3c42.7-7.3,85.3-16.8,126.1-31.7c20.5-7.4,40.4-16.2,60.5-24.7c19.5-8.3,39.5-16.1,58.7-25.1
	c19.7-9.2,38.1-21.7,56.5-33.2c18.7-11.6,37.5-23.2,56.4-34.4c19.4-11.4,39.7-20.2,60.9-27.7c20.4-7.3,41.1-15.1,62.5-19
	c9.7-1.8,19.5-1.5,29.3-2.3c10.8-0.8,21.6-1.7,32.4-2.1c20.5-0.7,40.7-0.3,60.7,4.1C939.5,612.5,940,601.2,936.5,600.4z M520.3,278
	c0.6,1.5,2.5,4,4,1.9c8-11.3,16.3-22.5,24.2-34c7.9-11.4,15.1-23.1,21.8-35.2c6.4-11.5,12.4-22.5,22.5-31.3
	c9.3-8.1,20.5-15.5,32.9-17.4c12.7-2,26.2,1,38.4,4.4c23.8,6.7,44.4,22.4,70.2,19.6c11.8-1.3,23.5-5.5,33.9-11
	c11.2-5.9,22-11.6,31.8-19.8c5-4.2,9.9-8.6,14.8-12.9c4-3.4,6.7-6.2,6.7-11.8c0-11.6-11.4-21.6-18.8-29.2
	c-17.3-17.7-38.6-30.4-60.8-40.8c-45.9-21.6-99.6-27.8-149-15.3c-13,3.3-25.5,8.2-37.9,13.2c-7,2.8-13.9,5.7-20.9,8.6
	c-4.5,1.9-8.7,3.7-12.3,7.1c-8,7.7-6.5,18.2-8.6,28.1c-2.5,11.8-8.4,22.5-14.8,32.6c-14.8,23.2-32.3,44.5-48.2,67
	c-7.3,10.3-14.3,20.8-19.6,32.2c-5.2,11-8.3,22.6-14.4,33.2c-12.8,21.8-32.9,35.6-53.6,49.3c-23.5,15.6-48,29.7-73.7,41.5
	c-12.8,5.9-26.1,10.6-39.1,16.2c-9.5,4.1-16.6,10.5-21,19.9c-3.9,8.3-7.4,20.4-4.8,29.5c3.1,11.1,13.2,13.3,23.4,12.5
	c13.7-1.1,26.2-6.6,39.1-11.2c13.8-4.9,27.7-9.8,41.6-14.5c27.7-9.3,56.3-16,83.3-27.4c23.8-10.1,47.1-22.5,66.2-40.1
	c8.8-8.1,16.8-17.2,23.4-27.2c7.9-11.9,16.1-23.4,24.4-35.1c2-2.8,1.6-8.4-1.3-10.5c-0.3-0.2-0.7-0.5-1-0.7
	c-2.1-1.5-3.2,3.1-3.3,4.2c-0.2,2.4,0.3,5.5,2.4,7c0.3,0.2,0.7,0.5,1,0.7c-0.4-3.5-0.8-7-1.3-10.5c-7.6,10.7-15.5,21.2-22.6,32.3
	c-27.3,42.9-76.6,67.3-124.1,81c-26.7,7.7-52.9,16.4-79.1,25.7c-6.9,2.5-13.8,4.9-20.7,7.4c-6,2.2-12.1,4.8-18.4,6.1
	c-5.9,1.3-13.4,2.6-19.4,1.4c-3.3-0.7-8.1-2.9-8.5-6.6c-0.5-4.4,2.1-10.9,3.8-14.9c1.7-3.8,4-7.4,6.9-10.4
	c8.4-8.3,21.9-11.5,32.6-15.8c25.1-10,49.1-22.6,72.1-36.6c11.5-7,22.8-14.4,33.9-22.2c9.4-6.6,18.6-13.3,26.5-21.7
	c7.2-7.6,13.1-16.2,18-25.5c5.3-10.1,8.2-21.1,13.2-31.3c11.2-22.7,28-42.7,43.1-62.9c14.1-18.9,30-38.8,37.3-61.6
	c1.8-5.6,3-11.4,3.4-17.3c0.4-4.6,0.6-8.8,3.8-12.4c3.5-4,8.7-5.8,13.4-7.8c6.1-2.5,12.2-5.1,18.3-7.5c24.4-9.9,48.7-17.4,75.2-19.1
	c24.6-1.6,50,0.5,73.8,7c22.3,6.1,43.4,16,63.2,27.9c10.7,6.4,20.5,13.4,29.4,22.1c4.4,4.2,8.5,8.7,12.5,13.2c1.7,1.9,6,6,6,8.7
	c0-1.4,1-1.8-1.4,0.3c-1.2,1.1-2.5,2.1-3.7,3.2c-9,7.8-17.8,16.2-28.3,22.2c-5.2,3-10.6,5.6-15.9,8.4c-5,2.6-10.3,4.9-15.7,6.7
	c-10.6,3.6-22,5.1-33.2,3.4c-12.4-1.8-23.9-7.9-35.2-12.9c-10.8-4.8-22.2-7.8-33.8-9.8c-11.9-2-23.6-2.4-35.1,2.3
	c-10.3,4.2-19.8,11.5-27.6,19.3c-8.6,8.6-13.9,19.1-19.7,29.6c-13.2,23.7-29.3,45.2-45,67.3C519.4,272.2,519.4,275.7,520.3,278z"/>
<g>
	
		<radialGradient id="SVGID_2_" cx="1651.5833" cy="686.4712" r="459.5056" fx="1647.2616" fy="1145.9564" gradientTransform="matrix(-0.3104 -0.9506 -0.9506 0.3104 1525.6079 2010.2437)" gradientUnits="userSpaceOnUse">
		<stop  offset="0" style="stop-color:#FFFFFF"/>
		<stop  offset="8.756542e-02" style="stop-color:#DFDDDC"/>
		<stop  offset="0.2348" style="stop-color:#AFA9A8"/>
		<stop  offset="0.3795" style="stop-color:#877E7D"/>
		<stop  offset="0.5185" style="stop-color:#685C5B"/>
		<stop  offset="0.6502" style="stop-color:#524443"/>
		<stop  offset="0.7716" style="stop-color:#453634"/>
		<stop  offset="0.873" style="stop-color:#40312F"/>
	</radialGradient>
	<path class="st1" d="M517.4,456.6c-26.3,21.6-56.3,37.1-86.2,52.9c-20.5,10.8-42.2,18.6-64.3,25.1c-14.6,4.3-21.7,14.1-26.1,27.2
		c-2.8,8.2,0.3,12.8,8.8,12.4c6.1-0.3,12.2-1.5,18.1-3.2c23.3-6.9,46.3-14.4,69.6-21.2c20.9-6.1,42.2-11.1,63.1-17.5
		c13.8-4.2,27.5-9.1,40.4-15.3c11.9-5.7,23.4-12.3,33.8-20.8c38.9,36,77.1,72.9,105.5,115.9c-4.2,3.4-8.4,6.7-12.6,10
		c-10.9,8.4-23.2,14.8-34.9,22.2c-19.4,12.4-38.4,25.5-58.3,37c-22.8,13.2-46.2,25.6-69.8,37.3c-15.9,7.9-32.6,14.4-49.2,20.9
		c-10,3.9-20.3,7.1-30.7,9.5c-26.6,6.3-53.6,11.3-80,18.3c-26,6.8-52.1,9-78.6,4.9c-9.9-1.6-20.2-3.7-29.1-8.1
		c-11.1-5.4-19.9-14.6-25.9-25.6c-5.7-10.4-7.5-21.6-2.6-32.8c3.6-8.1,7.9-16,12.5-23.6c5.2-8.7,11.3-16.9,16.5-25.6
		c9-15.3,14.6-31.8,15.2-49.8c0.9-26.2-15.7-46.7-37-52.2c-10.3-2.7-20.8-5.7-31.8-3.1c-0.6,0.1-1.4-0.8-2.6-1.5
		c1.6-1.8,2.7-3.6,4.3-5c16.7-15.1,34.9-28.1,55-38.4c25.5-13.1,52.7-21.9,80.1-30c25.4-7.5,49.8-17.4,73.7-28.8
		c2.8-1.3,5.4-2.9,8.1-4.3c11.2-5.6,22.9-10.5,33.7-16.9c15-8.8,28.7-19.2,41.1-31.4c15.2,18.7,31.3,36.7,48.2,54
		C522.9,451.9,520.1,454.3,517.4,456.6z M474.6,764.5c-29.1,11.7-59.1,20.6-89.8,27.4c-43,9.4-86.3,17.6-130.5,18.1
		c-19,0.2-38.2,0.2-56.8-5.4c-14.8-4.4-27.5-12.3-38.3-23.1c-12-11.9-16.7-35.5-5.5-51.8c12.8-18.5,25.7-36.7,40.1-53.9
		c10.8-12.9,14.8-29,14.2-45.7c-1.2-33.5-22.7-58.6-55.8-65.3c-6.2-1.3-12.4-0.7-17.3,4.1c-11.6,11.4-23.6,22.5-34.7,34.3
		c-12.7,13.6-21.7,29.8-29,46.8c-23.6,54.5-23.5,110-5.1,165.7c11,33.4,28.4,63.8,52.9,88.8c29,29.6,63.4,51.1,103.9,62.8
		c36,10.4,72.7,16.1,110,16.7c51.4,0.8,101.8-6.8,151-21.9c24.1-7.4,48.1-14.8,71.7-23.5c33.2-12.2,65.4-27,96.7-43.3
		c33.2-17.2,65.1-36.4,95.6-58c-2.6-65.3-16.8-129.6-47.3-189.8c-8.9,4.9-17.6,10.3-26.4,15.5c-28.7,17.2-56.8,35.4-85.7,52.1
		c-13,7.5-27.4,12.5-41.2,18.5c-9,3.9-17.9,7.8-27,11.6C505.2,751.8,490,758.4,474.6,764.5z M448.9,358.1
		c-15.8-22.2-30.2-45.3-43-69.2c-5.6,6.4-12,12.2-19.4,17.5c-32.1,23-65.5,43.4-101.5,59.5c-11.8,5.2-23.9,9.5-35.8,14.6
		c-15.8,6.8-21,20.8-23,36.2c-1,8,6.3,14.4,15.8,14c7.3-0.3,15-1.1,21.8-3.5c36.7-13.2,73.2-26.5,110.8-37.1
		c21.3-6,41.8-14.5,61.4-24.8C440.4,363,444.7,360.6,448.9,358.1z"/>
	
		<linearGradient id="SVGID_3_" gradientUnits="userSpaceOnUse" x1="1486.6814" y1="115.532" x2="2084.6438" y2="460.7658" gradientTransform="matrix(-0.3104 -0.9506 -0.9506 0.3104 1525.6079 2010.2437)">
		<stop  offset="1.310683e-03" style="stop-color:#40312F"/>
		<stop  offset="0.3849" style="stop-color:#A49B99"/>
		<stop  offset="0.5735" style="stop-color:#D1CAC8"/>
		<stop  offset="0.5849" style="stop-color:#C2B9B7"/>
		<stop  offset="0.61" style="stop-color:#A59A98"/>
		<stop  offset="0.6384" style="stop-color:#8C7E7D"/>
		<stop  offset="0.6705" style="stop-color:#786867"/>
		<stop  offset="0.708" style="stop-color:#695756"/>
		<stop  offset="0.7544" style="stop-color:#5E4C4B"/>
		<stop  offset="0.8194" style="stop-color:#584544"/>
		<stop  offset="1" style="stop-color:#564342"/>
	</linearGradient>
	<path class="st2" d="M578,493.4c8.9-7.7,17.3-15.6,24.4-24.9c16-21.1,31.9-42.2,47.5-63.6c8.8-12.2,17-24.8,25.3-37.4
		c7.9-12.1,15.1-24.6,26.5-34c19.4-16,40.7-22.6,66-16.6c17.3,4.1,33.1,11.4,48.7,19.3c16.1,8.2,32.5,9.3,49.2,3.7
		c19.3-6.5,37.6-15.1,53.2-28.7c4.5-3.9,9.3-7.6,15.1-12.4c33.9,54.9,49,112.3,37.5,176.1c-7.3,0.5-13.6,0.9-20,1.5
		c-27,2.7-53.6,7.5-79.8,14.3c-26.8,7-53.1,15.7-76.1,31.9c-10.5,7.4-21.2,14.7-31.6,22.4c-11.1,8.2-22.1,16.6-32.8,25.3
		c-17.1,13.8-33.8,28-51,41.8c-28.5-43-66.6-79.9-105.5-115.9C575.8,495.3,576.9,494.4,578,493.4z M487.7,384.1
		c-3.4,3.9-6.9,7.6-10.5,11.2c15.2,18.7,31.3,36.7,48.2,54c1.1-1.2,2.2-2.5,3.1-3.8c7.4-10.8,15.5-21.2,19.8-34.1
		c6-18.1,17.3-33.3,29.6-47.4c20.9-23.9,40.8-48.5,55.8-76.6c6.1-11.4,11.8-23,14.4-35.8c0.8-4.2,1.3-8.4,2.1-13.5
		c-7,1.1-12,4.4-16.8,8c-32.9,24.4-63.8,51.1-91.8,81.1C523.7,346.2,504.8,364.4,487.7,384.1z M747.9,837.4
		c5.4-3.8,10.7-7.7,16-11.6c41.3-30.9,79-65.6,111.2-106c26.5-33.2,47.2-69.7,61.6-109.7c0.3-0.8,0-1.8,0-3.9
		c-4.5-1-9.1-2.4-13.9-2.9c-26.4-2.7-52.8-1.4-79.2,0.8c-9.2,0.8-18.5,0.4-27.5,2c-10.8,1.9-21.6,4.7-32,8.3
		c-21.5,7.3-43.1,14.4-63.9,23.4c-6.7,2.9-13.2,6.2-19.5,9.8C731.1,707.8,745.3,772,747.9,837.4z M405.9,288.8
		c12.8,24,27.2,47.1,43,69.2c21.3-13,39.6-29.5,53.1-51.4c6.6-10.7,14.5-20.6,21.7-30.9c-0.3-0.2-0.7-0.5-1-0.7
		c10.5-14.8,21.3-29.3,31.3-44.5c7.4-11.3,13.9-23.2,20.4-35.1c7.9-14.5,19.8-24.9,33.8-33.1c10.5-6.1,22-7.7,33.9-6.1
		c15.3,2.1,30.1,5.8,44.1,12.8c5.2,2.6,10.7,4.5,16.2,6.7c23.4,9.5,45.2,4.2,66.4-7c1.9-1,3.5-2.5,5.5-3.3
		c16.8-6.6,28.8-19.7,42.2-30.8c2.5-2.1,3.1-4.6,1.7-7.4c-1.5-3-3-6.1-5.2-8.6c-11-12.5-22.4-24.3-36.7-33.3
		c-29.7-18.8-61.2-33.2-96.2-38c-37.4-5.2-74.3-2.7-109.8,11.1c-12.9,5-25.6,10.3-38.4,15.6c-8.8,3.7-14.1,9.5-14.5,20.1
		c-0.7,19.1-10.3,35.4-20.5,50.7c-12.6,18.9-26.8,36.7-40.1,55.2c-11.1,15.5-22.2,31-28.5,49.3C423.2,264.4,415.9,277.5,405.9,288.8
		z"/>
</g>
</svg>
